# xmcd
# 
# Track frame offsets:
#     182
#     13712
#     26865
#     37585
#     50510
#     62070
#     73507
#     84662
# 
# Disc length: 1292
# 
# Revision: 2
# Processed by: cddbd v1.5.2PL0 Copyright (c) Steve Scherf et al.
# Submitted via: BonkEnc v1.0
# 
DISCID=61050a08
DTITLE=Various Artist - Stand By Me
DYEAR=0
DGENRE=
TTITLE0=Ben E. King - Stand By Me
TTITLE1=Ben E. King - Spanish Harlem
TTITLE2=Ben E. King - I (Who Have Nothing)
TTITLE3=Ben E. King - Don't Play That Song (You Lied)
TTITLE4=The Drifters - Up On The Roof
TTITLE5=The Drifters - Save The Last Dance For Me
TTITLE6=The Drifters - This Magic Moment
TTITLE7=The Drifters - On Broadway
EXTD=
EXTT0=
EXTT1=
EXTT2=
EXTT3=
EXTT4=
EXTT5=
EXTT6=
EXTT7=
PLAYORDER=
